<svg width="97" height="20" viewBox="0 0 97 20" fill="none" xmlns="http://www.w3.org/2000/svg">
<g clip-path="url(#clip0_3279_36415)">
<path d="M18.5709 2.34411C16.684 0.464045 14.2307 0 10.915 0C7.59932 0 5.14517 0.458927 3.25914 2.34411C1.37311 4.22759 0.915039 6.6843 0.915039 10C0.915039 13.3157 1.37226 15.7716 3.25914 17.6559C5.14517 19.5411 7.59591 20 10.915 20C14.2341 20 16.6849 19.5411 18.5709 17.6559C20.4578 15.7707 20.915 13.3157 20.915 10C20.915 6.6843 20.462 4.22844 18.5709 2.34411Z" fill="#ED1C24"/>
<path d="M8.79476 9.48924C8.39811 9.09258 8.30172 8.5765 8.30172 7.87873C8.30172 7.18096 8.39811 6.66488 8.79476 6.26907C9.19142 5.87242 9.70664 5.77603 10.4044 5.77603C11.1022 5.77603 11.6174 5.87327 12.0149 6.26907C12.4124 6.66488 12.508 7.18096 12.508 7.87873C12.508 8.5765 12.4116 9.09258 12.0149 9.48924C11.6183 9.8859 11.103 9.98229 10.4044 9.98229C10.3259 9.98229 10.2492 9.98058 10.175 9.97802L12.0661 11.8692C12.6538 11.7301 13.1511 11.4811 13.5785 11.0537C14.3607 10.2723 14.5501 9.25466 14.5501 7.87958C14.5501 6.50451 14.3624 5.48685 13.5785 4.70548C12.7963 3.92667 11.7795 3.73389 10.4044 3.73389C9.02934 3.73389 8.01254 3.92411 7.23117 4.70548C6.44895 5.48685 6.25958 6.50451 6.25958 7.87958V16.2674H8.30257V11.8862L12.6837 16.2674H15.5729L8.79562 9.49009L8.79476 9.48924Z" fill="white"/>
<path d="M28.573 11.5787H28.1354V15.8831H25.915V5.38574H30.2048C32.4551 5.38574 33.8754 6.6849 33.8754 8.48222C33.8754 10.0833 32.7426 11.2767 30.9299 11.5335L34.0562 15.8831H31.5637L28.573 11.5787ZM28.1354 9.99292H30.1443C31.1261 9.99292 31.6848 9.4794 31.6848 8.67927C31.6848 7.87913 31.1261 7.35026 30.1443 7.35026H28.1354V9.99378V9.99292Z" fill="black"/>
<path d="M38.6831 14.2213C39.6649 14.2213 40.1631 13.8741 40.5103 13.2394L42.2172 14.3723C41.5979 15.2782 40.5708 16.0792 38.6225 16.0792C36.0396 16.0792 34.3634 14.2818 34.3634 11.9104C34.3634 9.53902 36.1906 7.7417 38.4716 7.7417C41.0392 7.7417 42.5644 9.75057 42.5644 11.7441C42.5644 12.0913 42.549 12.3932 42.5191 12.5903H36.5531C36.8099 13.6327 37.6254 14.2213 38.6831 14.2213ZM40.4651 11.1248C40.2535 10.0824 39.5592 9.43325 38.5321 9.43325C37.5051 9.43325 36.7502 10.0372 36.5233 11.1248H40.4651Z" fill="black"/>
<path d="M51.6433 4.84216V15.8829H49.5739V15.0674C48.9844 15.702 48.1544 16.079 47.1274 16.079C44.8319 16.079 43.1702 14.2817 43.1702 11.9103C43.1702 9.53891 44.7867 7.74159 47.0668 7.74159C48.018 7.74159 48.8189 8.05891 49.4075 8.61765V4.84131H51.6433V4.84216ZM49.4988 11.9112C49.4988 10.612 48.668 9.7061 47.4447 9.7061C46.2215 9.7061 45.3906 10.6427 45.3906 11.9112C45.3906 13.1796 46.2513 14.1009 47.4447 14.1009C48.6381 14.1009 49.4988 13.2095 49.4988 11.9112Z" fill="black"/>
<path d="M62.5934 15.8831L62.0646 8.64856L59.7989 15.5359H57.9411L55.6754 8.6332L55.1321 15.8831H53.0626L53.8175 5.38574H55.9168V5.4011L56.4304 5.38574L58.8768 12.8019L61.3088 5.38574L61.8223 5.4011V5.38574H63.9062L64.6765 15.8831H62.5926H62.5934Z" fill="black"/>
<path d="M69.916 14.2213C70.8978 14.2213 71.396 13.8741 71.7431 13.2394L73.45 14.3723C72.8307 15.2782 71.8037 16.0792 69.8554 16.0792C67.2724 16.0792 65.5963 14.2818 65.5963 11.9104C65.5963 9.53902 67.4234 7.7417 69.7044 7.7417C72.272 7.7417 73.7972 9.75057 73.7972 11.7441C73.7972 12.0913 73.7819 12.3932 73.752 12.5903H67.786C68.0427 13.6327 68.8582 14.2213 69.916 14.2213ZM71.6979 11.1248C71.4864 10.0824 70.792 9.43325 69.765 9.43325C68.7379 9.43325 67.983 10.0372 67.7561 11.1248H71.6979Z" fill="black"/>
<path d="M82.876 4.84216V15.8829H80.8065V15.0674C80.2171 15.702 79.3871 16.079 78.3601 16.079C76.0646 16.079 74.4029 14.2817 74.4029 11.9103C74.4029 9.53891 76.0194 7.74159 78.2995 7.74159C79.2506 7.74159 80.0516 8.05891 80.6402 8.61765V4.84131H82.876V4.84216ZM80.7315 11.9112C80.7315 10.612 79.9006 9.7061 78.6774 9.7061C77.4542 9.7061 76.6233 10.6427 76.6233 11.9112C76.6233 13.1796 77.484 14.1009 78.6774 14.1009C79.8708 14.1009 80.7315 13.2095 80.7315 11.9112Z" fill="black"/>
<path d="M84.0411 5.34033C84.0411 4.52484 84.6903 3.9209 85.5066 3.9209C86.323 3.9209 86.9568 4.52484 86.9568 5.34033C86.9568 6.15582 86.3221 6.75976 85.5066 6.75976C84.6911 6.75976 84.0411 6.17032 84.0411 5.34033ZM84.3738 7.92329H86.6096V15.8829H84.3738V7.92329Z" fill="black"/>
<path d="M96.0853 7.9235V15.8831H94.0159V15.007C93.4418 15.6869 92.6109 16.0793 91.5694 16.0793C89.2739 16.0793 87.6122 14.2819 87.6122 11.9105C87.6122 9.53913 89.2739 7.87744 91.5694 7.87744C92.6118 7.87744 93.4426 8.23998 94.0159 8.88913V7.92265H96.0853V7.9235ZM93.9408 11.9105C93.9408 10.6114 93.11 9.70547 91.8867 9.70547C90.6635 9.70547 89.8327 10.6421 89.8327 11.9105C89.8327 13.179 90.6934 14.1003 91.8867 14.1003C93.0801 14.1003 93.9408 13.2088 93.9408 11.9105Z" fill="black"/>
</g>
<defs>
<clipPath id="clip0_3279_36415">
<rect width="95.1703" height="20" fill="white" transform="translate(0.915039)"/>
</clipPath>
</defs>
</svg>
